<svg width="800" height="450" xmlns="http://www.w3.org/2000/svg" xmlns:svg="http://www.w3.org/2000/svg" stroke-width="5" stroke="#000" fill="#FFF"><rect height="450" width="800" x="0" y="0"/><text xml:space="preserve" text-anchor="middle" font-family="serif" font-size="18" fill="#000" stroke-width="1" x="270" y="25">résultat dans la console</text><line x1="270" y1="35" x2="270" y2="50" stroke-width="5" stroke="#000"/><text xml:space="preserve" text-anchor="middle" font-family="serif" font-size="18" fill="#000" stroke-width="1" x="270" y="70">`malg* fichier.malg` (ou depuis éditeur)</text><text xml:space="preserve" text-anchor="middle" font-family="serif" font-size="18" fill="#000" stroke-width="1" x="605" y="25">HTML</text><line x1="605" y1="35" x2="605" y2="50" stroke-width="5" stroke="#000"/><text xml:space="preserve" text-anchor="middle" font-family="serif" font-size="18" fill="#000" stroke-width="1" x="605" y="70">formulaire</text><rect height="45" width="650" x="20" y="150"/><text xml:space="preserve" text-anchor="middle" font-family="serif" font-size="24" fill="#000" stroke-width="1" x="340" y="180">microalg.l</text><rect height="45" width="110" x="20" y="90"/><text xml:space="preserve" text-anchor="middle" font-family="serif" font-size="24" fill="#000" stroke-width="1" x="75" y="120">malg</text><line x1="75" y1="135" x2="75" y2="150" stroke-width="5" stroke="#000"/><line x1="75" y1="195" x2="75" y2="210" stroke-width="5" stroke="#000"/><text xml:space="preserve" text-anchor="middle" font-family="serif" font-size="24" fill="#000" stroke-width="1" x="75" y="235">pil</text><text xml:space="preserve" text-anchor="middle" font-family="serif" font-size="24" fill="#000" stroke-width="1" x="75" y="280">PicoLisp</text><line x1="75" y1="290" x2="75" y2="400" stroke-width="5" stroke="#000"/><rect height="45" width="110" x="150" y="90" stroke-width="5" stroke="#000" fill="#FFF"/><text xml:space="preserve" text-anchor="middle" font-family="serif" font-size="24" fill="#000" stroke-width="1" x="205" y="120">malg-j</text><line x1="205" y1="135" x2="205" y2="150" stroke-width="5" stroke="#000"/><line x1="205" y1="195" x2="205" y2="210" stroke-width="5" stroke="#000"/><text xml:space="preserve" text-anchor="middle" font-family="serif" font-size="24" fill="#000" stroke-width="1" x="205" y="235">pil-j</text><text xml:space="preserve" text-anchor="middle" font-family="serif" font-size="24" fill="#000" stroke-width="1" x="205" y="280">Ersatz</text><line x1="205" y1="290" x2="205" y2="350" stroke-width="5" stroke="#000"/><rect height="45" width="110" x="280" y="90" stroke-width="5" stroke="#000" fill="#FFF"/><text xml:space="preserve" text-anchor="middle" font-family="serif" font-size="24" fill="#000" stroke-width="1" x="335" y="120">malg-rjs</text><line x1="335" y1="135" x2="335" y2="150" stroke-width="5" stroke="#000"/><line x1="335" y1="195" x2="335" y2="210" stroke-width="5" stroke="#000"/><text xml:space="preserve" text-anchor="middle" font-family="serif" font-size="24" fill="#000" stroke-width="1" x="335" y="235">pil-rjs</text><text xml:space="preserve" text-anchor="middle" font-family="serif" font-size="24" fill="#000" stroke-width="1" x="335" y="280">EmuLisp</text><text xml:space="preserve" text-anchor="middle" font-family="serif" font-size="24" fill="#000" stroke-width="1" x="335" y="325">Rhino</text><line x1="335" y1="335" x2="335" y2="350" stroke-width="5" stroke="#000"/><rect height="45" width="110" x="410" y="90" stroke-width="5" stroke="#000" fill="#FFF"/><text xml:space="preserve" text-anchor="middle" font-family="serif" font-size="24" fill="#000" stroke-width="1" x="465" y="120">malg-njs</text><line x1="465" y1="135" x2="465" y2="150" stroke-width="5" stroke="#000"/><line x1="465" y1="195" x2="465" y2="210" stroke-width="5" stroke="#000"/><text xml:space="preserve" text-anchor="middle" font-family="serif" font-size="24" fill="#000" stroke-width="1" x="465" y="235">pil-njs</text><text xml:space="preserve" text-anchor="middle" font-family="serif" font-size="24" fill="#000" stroke-width="1" x="465" y="280">EmuLisp</text><text xml:space="preserve" text-anchor="middle" font-family="serif" font-size="24" fill="#000" stroke-width="1" x="465" y="325">NodeJS</text><line x1="465" y1="335" x2="465" y2="400" stroke-width="5" stroke="#000"/><rect height="45" width="130" x="540" y="90" stroke-width="5" stroke="#000" fill="#FFF"/><text xml:space="preserve" text-anchor="middle" font-family="serif" font-size="24" fill="#000" stroke-width="1" x="605" y="120">web IDE</text><line x1="605" y1="135" x2="605" y2="150" stroke-width="5" stroke="#000"/><line x1="605" y1="195" x2="605" y2="250" stroke-width="5" stroke="#000"/><text xml:space="preserve" text-anchor="middle" font-family="serif" font-size="24" fill="#000" stroke-width="1" x="605" y="280">EmuLisp</text><text xml:space="preserve" text-anchor="middle" font-family="serif" font-size="24" fill="#000" stroke-width="1" x="605" y="325">browser</text><line x1="605" y1="335" x2="605" y2="400" stroke-width="5" stroke="#000"/><rect fill="#FFF" stroke="#000" stroke-width="5" x="175" y="350" width="190" height="40"/><text xml:space="preserve" text-anchor="middle" font-family="serif" font-size="24" fill="#000" stroke-width="1" x="270" y="378">JVM</text><rect fill="#FFF" stroke="#000" stroke-width="5" x="20" y="400" width="650" height="40"/><text xml:space="preserve" text-anchor="middle" font-family="serif" font-size="24" fill="#000" stroke-width="1" x="300" y="430">MACHINE</text><line stroke="#000" stroke-width="2" x1="350" y1="350" x2="350" y2="345"/><line stroke="#000" stroke-width="2" x1="350" y1="345" x2="745" y2="345"/><line stroke="#000" stroke-width="2" x1="745" y1="345" x2="745" y2="275"/><line stroke="#000" stroke-width="2" x1="745" y1="210" x2="745" y2="195"/><line stroke="#000" stroke-width="2" x1="745" y1="150" x2="745" y2="30"/><line stroke="#000" stroke-width="2" x1="650" y1="310" x2="650" y2="305"/><line stroke="#000" stroke-width="2" x1="650" y1="305" x2="715" y2="305"/><line stroke="#000" stroke-width="2" x1="715" y1="305" x2="715" y2="275"/><line stroke="#000" stroke-width="2" x1="715" y1="210" x2="715" y2="195"/><line stroke="#000" stroke-width="2" x1="715" y1="150" x2="715" y2="70"/><line stroke="#000" stroke-width="2" x1="715" y1="70" x2="675" y2="20"/><line stroke="#000" stroke-width="2" x1="675" y1="20" x2="645" y2="20"/><text xml:space="preserve" text-anchor="middle" font-family="serif" font-size="24" fill="#000" stroke-width="1" x="725" y="235">Processing</text><text xml:space="preserve" text-anchor="middle" font-family="serif" font-size="24" fill="#000" stroke-width="1" x="730" y="260">(.js)</text><text xml:space="preserve" text-anchor="middle" font-family="serif" font-size="24" fill="#000" stroke-width="1" x="745" y="25">FEP</text><rect fill="#FFF" stroke="#000" stroke-width="5" x="680" y="150" width="100" height="45"/><text xml:space="preserve" text-anchor="middle" font-family="serif" font-size="24" fill="#000" stroke-width="1" x="730" y="180">.pde</text></svg>