<svg width="800" height="450" xmlns="http://www.w3.org/2000/svg" xmlns:svg="http://www.w3.org/2000/svg" stroke-width="5" stroke="#000" fill="#FFF"><rect height="450" width="800" x="0" y="0"/><text xml:space="preserve" text-anchor="middle" font-family="serif" font-size="18" fill="#000" stroke-width="1" x="300" y="25">résultat dans la console</text><line x1="300" y1="35" x2="300" y2="50" stroke-width="5" stroke="#000"/><text xml:space="preserve" text-anchor="middle" font-family="serif" font-size="18" fill="#000" stroke-width="1" x="300" y="70">`malg* fichier.malg` (ou depuis éditeur)</text><text xml:space="preserve" text-anchor="middle" font-family="serif" font-size="18" fill="#000" stroke-width="1" x="675" y="25">HTML</text><line x1="675" y1="35" x2="675" y2="50" stroke-width="5" stroke="#000"/><text xml:space="preserve" text-anchor="middle" font-family="serif" font-size="18" fill="#000" stroke-width="1" x="675" y="70">formulaire</text><rect height="45" width="700" x="50" y="150"/><text xml:space="preserve" text-anchor="middle" font-family="serif" font-size="24" fill="#000" stroke-width="1" x="390" y="180">microalg.l</text><rect height="45" width="110" x="50" y="90"/><text xml:space="preserve" text-anchor="middle" font-family="serif" font-size="24" fill="#000" stroke-width="1" x="105" y="120">malg</text><line x1="105" y1="135" x2="105" y2="150" stroke-width="5" stroke="#000"/><line x1="105" y1="195" x2="105" y2="210" stroke-width="5" stroke="#000"/><text xml:space="preserve" text-anchor="middle" font-family="serif" font-size="24" fill="#000" stroke-width="1" x="105" y="235">pil</text><text xml:space="preserve" text-anchor="middle" font-family="serif" font-size="24" fill="#000" stroke-width="1" x="105" y="280">PicoLisp</text><line x1="105" y1="290" x2="105" y2="400" stroke-width="5" stroke="#000"/><rect height="45" width="110" x="180" y="90" stroke-width="5" stroke="#000" fill="#FFF"/><text xml:space="preserve" text-anchor="middle" font-family="serif" font-size="24" fill="#000" stroke-width="1" x="235" y="120">malg-j</text><line x1="235" y1="135" x2="235" y2="150" stroke-width="5" stroke="#000"/><line x1="235" y1="195" x2="235" y2="210" stroke-width="5" stroke="#000"/><text xml:space="preserve" text-anchor="middle" font-family="serif" font-size="24" fill="#000" stroke-width="1" x="235" y="235">pil-j</text><text xml:space="preserve" text-anchor="middle" font-family="serif" font-size="24" fill="#000" stroke-width="1" x="235" y="280">Ersatz</text><line x1="235" y1="290" x2="235" y2="350" stroke-width="5" stroke="#000"/><rect height="45" width="110" x="310" y="90" stroke-width="5" stroke="#000" fill="#FFF"/><text xml:space="preserve" text-anchor="middle" font-family="serif" font-size="24" fill="#000" stroke-width="1" x="365" y="120">malg-rjs</text><line x1="365" y1="135" x2="365" y2="150" stroke-width="5" stroke="#000"/><line x1="365" y1="195" x2="365" y2="210" stroke-width="5" stroke="#000"/><text xml:space="preserve" text-anchor="middle" font-family="serif" font-size="24" fill="#000" stroke-width="1" x="365" y="235">pil-rjs</text><text xml:space="preserve" text-anchor="middle" font-family="serif" font-size="24" fill="#000" stroke-width="1" x="365" y="280">EmuLisp</text><text xml:space="preserve" text-anchor="middle" font-family="serif" font-size="24" fill="#000" stroke-width="1" x="365" y="325">Rhino</text><line x1="365" y1="335" x2="365" y2="350" stroke-width="5" stroke="#000"/><rect height="45" width="110" x="440" y="90" stroke-width="5" stroke="#000" fill="#FFF"/><text xml:space="preserve" text-anchor="middle" font-family="serif" font-size="24" fill="#000" stroke-width="1" x="495" y="120">malg-njs</text><line x1="495" y1="135" x2="495" y2="150" stroke-width="5" stroke="#000"/><line x1="495" y1="195" x2="495" y2="210" stroke-width="5" stroke="#000"/><text xml:space="preserve" text-anchor="middle" font-family="serif" font-size="24" fill="#000" stroke-width="1" x="495" y="235">pil-njs</text><text xml:space="preserve" text-anchor="middle" font-family="serif" font-size="24" fill="#000" stroke-width="1" x="495" y="280">EmuLisp</text><text xml:space="preserve" text-anchor="middle" font-family="serif" font-size="24" fill="#000" stroke-width="1" x="495" y="325">NodeJS</text><line x1="495" y1="335" x2="495" y2="400" stroke-width="5" stroke="#000"/><rect height="45" width="150" x="600" y="90" stroke-width="5" stroke="#000" fill="#FFF"/><text xml:space="preserve" text-anchor="middle" font-family="serif" font-size="24" fill="#000" stroke-width="1" x="675" y="120">web IDE</text><line x1="675" y1="135" x2="675" y2="150" stroke-width="5" stroke="#000"/><line x1="675" y1="195" x2="675" y2="250" stroke-width="5" stroke="#000"/><text xml:space="preserve" text-anchor="middle" font-family="serif" font-size="24" fill="#000" stroke-width="1" x="675" y="280">EmuLisp</text><text xml:space="preserve" text-anchor="middle" font-family="serif" font-size="24" fill="#000" stroke-width="1" x="675" y="325">browser</text><line x1="675" y1="335" x2="675" y2="400" stroke-width="5" stroke="#000"/><rect fill="#FFF" stroke="#000" stroke-width="5" x="205" y="350" width="190" height="40"/><text xml:space="preserve" text-anchor="middle" font-family="serif" font-size="24" fill="#000" stroke-width="1" x="300" y="378">JVM</text><rect fill="#FFF" stroke="#000" stroke-width="5" x="50" y="400" width="700" height="40"/><text xml:space="preserve" text-anchor="middle" font-family="serif" font-size="24" fill="#000" stroke-width="1" x="300" y="430">MACHINE</text></svg>